<svg xmlns="http://www.w3.org/2000/svg" viewBox="-108 -2808 2216 2916" width="1000" height="1316"><rect x="-108" y="-2808" width="2216" height="2916" fill="#1b2328"/><rect x="0" y="-2700" width="2000" height="2700" fill="#141b20" stroke="#9aa7b0" stroke-width="1.5" stroke-dasharray="6 4"/><g fill="#22313b" stroke="#39a9ff" stroke-width="1"><polygon points="250.618,-140.66000000000003 311.444,-140.66000000000003 318.854,-141.83400000000003 325.912,-145.43000000000004 331.513,-151.03100000000003 335.109,-158.08900000000003 336.283,-165.49900000000002 336.283,-226.32500000000005 335.109,-233.735 331.513,-240.793 325.912,-246.394 318.854,-249.99 311.444,-251.16400000000004 250.618,-251.16400000000004 243.208,-249.99 236.15,-246.394 230.549,-240.793 226.953,-233.735 225.779,-226.32500000000005 225.779,-165.49900000000002 226.953,-158.08900000000003 230.549,-151.03100000000003 236.15,-145.43000000000004 243.208,-141.83400000000003"/><polygon points="254.579,-344.23900000000003 141.125,-344.23900000000003 168.751,-233.735 226.953,-233.735"/><polygon points="202.702,-233.735 138.35199999999998,-233.735 115.27499999999999,-210.65800000000002 115.27499999999999,-146.308 138.35199999999998,-123.23100000000001 202.702,-123.23100000000001 225.779,-146.308 225.779,-210.65800000000002"/><polygon points="233.74,-251.164 345.33000000000004,-251.164 343.75,-267.20099999999996 340.605,-277.57 335.496,-287.127 328.622,-295.503 320.246,-302.377 310.689,-307.486 300.32,-310.631 289.535,-311.693 278.75,-310.631 268.38100000000003,-307.486 258.824,-302.377 250.448,-295.503 243.574,-287.127 238.465,-277.57 235.32000000000002,-267.20099999999996"/><polygon points="403.774,-361.895 403.388,-367.513 402.236,-373.05899999999997 400.342,-378.462 397.736,-383.66499999999996 394.459,-388.613 390.557,-393.263 386.076,-397.579 381.06600000000003,-401.526 375.58,-405.08 369.666,-408.211 363.385,-410.9 356.699,-413.159 342.91,-416.147 328.51,-417.15999999999997 314.11,-416.147 300.321,-413.159 293.635,-410.9 287.354,-408.211 281.44,-405.08 275.954,-401.526 270.94399999999996,-397.579 266.46299999999997,-393.263 262.56100000000004,-388.613 259.284,-383.66499999999996 256.678,-378.462 254.784,-373.05899999999997 253.632,-367.513 253.246,-361.895 253.632,-356.277 254.784,-350.731 256.678,-345.328 259.284,-340.125 262.56100000000004,-335.177 266.46299999999997,-330.527 270.94399999999996,-326.211 275.954,-322.264 281.44,-318.71 287.354,-315.579 293.635,-312.89 300.321,-310.631 314.11,-307.643 328.51,-306.63 342.91,-307.643 356.699,-310.631 363.385,-312.89 369.666,-315.579 375.58,-318.71 381.06600000000003,-322.264 386.076,-326.211 390.557,-330.527 394.459,-335.177 397.736,-340.125 400.342,-345.328 402.236,-350.731 403.388,-356.277"/><polygon points="532.6909999999999,-105.114 492.8459999999999,-187.85500000000002 403.31299999999993,-208.29000000000002 331.5129999999999,-151.031 331.5129999999999,-59.196000000000005 403.31299999999993,-1.9380000000000024 492.8459999999999,-22.373"/><polygon points="331.51300000000003,-75.15 331.51300000000003,-100.703 330.53600000000006,-109.372 327.557,-117.887 322.75700000000006,-125.525 316.37800000000004,-131.904 308.74,-136.704 300.225,-139.683 291.55600000000004,-140.66 245.848,-140.66 238.43800000000005,-139.486 231.38000000000005,-135.89 225.77900000000005,-130.289 222.18300000000005,-123.23100000000001 221.00900000000001,-115.82100000000001 221.00900000000001,-44.891000000000005 222.07500000000005,-39.532000000000004 225.40400000000005,-34.551 230.38500000000005,-31.222 235.74400000000003,-30.156000000000002 286.519,-30.156000000000002 295.095,-31.001 303.58700000000005,-33.577000000000005 311.41600000000005,-37.761 318.27700000000004,-43.392 323.908,-50.253 328.09200000000004,-58.082 330.668,-66.574"/><polygon points="375.71000000000004,-208.29000000000002 486.21400000000006,-208.29000000000002 486.21400000000006,-318.79400000000004 375.71000000000004,-318.79400000000004"/><polygon points="221.00900000000001,-5.317000000000002 221.00900000000001,-115.82100000000001 135.344,-115.82100000000001 127.93400000000001,-114.647 120.87600000000002,-111.051 115.27500000000002,-105.45 111.67900000000002,-98.39200000000001 110.50500000000001,-90.98200000000001 110.50500000000001,-30.156 111.67900000000002,-22.746000000000002 115.27500000000002,-15.688000000000002 120.87600000000002,-10.087000000000002 127.93400000000001,-6.491000000000001 135.344,-5.317000000000002"/><polygon points="519.915,-410.671 488.414,-318.794 391.28599999999994,-318.794 422.788,-410.671"/><polygon points="236.521,-344.23900000000003 289.553,-436.093 236.522,-527.947 130.45799999999997,-527.948 77.42499999999998,-436.09400000000005 130.456,-344.23900000000003"/><polygon points="519.915,-410.671 406.16499999999996,-410.671 406.16499999999996,-521.175 464.66299999999995,-521.175"/><polygon points="299.259,-412.801 254.73700000000002,-519.653 405.22,-519.653"/><polygon points="107.001,-219.754 117.63,-221.868 127.64099999999999,-226.01399999999998 136.651,-232.035 144.313,-239.696 150.333,-248.706 154.481,-258.717 156.595,-269.34499999999997 156.595,-280.182 154.481,-290.811 150.33499999999998,-300.822 144.314,-309.832 136.652,-317.49399999999997 127.643,-323.514 117.63199999999999,-327.662 107.00399999999999,-329.77599999999995 96.167,-329.77599999999995 85.538,-327.662 75.52699999999999,-323.51599999999996 66.517,-317.495 58.855,-309.83299999999997 52.834999999999994,-300.82399999999996 48.687,-290.812 46.57299999999999,-280.185 46.57299999999999,-269.348 48.687,-258.719 52.833,-248.708 58.85399999999999,-239.69799999999998 66.51599999999999,-232.036 75.52499999999999,-226.016 85.536,-221.868 96.16399999999999,-219.754"/><polygon points="9.468000000000004,-110.504 120.328,-110.504 119.08200000000001,-129.496 116.397,-143 111.971,-156.038 105.881,-168.388 98.23100000000001,-179.836 89.153,-190.18900000000002 78.8,-199.267 67.352,-206.917 55.002,-213.007 41.964000000000006,-217.433 28.460000000000004,-220.118 9.468000000000004,-221.364"/><polygon points="110.504,-110.504 0,-110.504 0,-23.076999999999998 23.076999999999998,0 87.427,0 110.504,-23.076999999999998"/><polygon points="12.525,-344.239 130.456,-344.239 12.525,-462.16999999999996"/></g></svg>