0
SECTION
2
HEADER
9
$ACADVER
1
AC1015
9
$INSUNITS
70
4
0
ENDSEC
0
SECTION
2
ENTITIES
0
LWPOLYLINE
8
CUT
90
10
70
1
10
45
20
0
10
57.34349029814194
20
28.010643118126104
10
87.79754323328191
20
31.094235253127366
10
64.97218684219823
20
51.489356881873896
10
71.45033635316129
20
81.40576474687263
10
45
20
66
10
18.549663646838713
20
81.40576474687263
10
25.027813157801777
20
51.489356881873896
10
2.202456766718086
20
31.094235253127373
10
32.65650970185806
20
28.010643118126104
0
LWPOLYLINE
8
CUT
90
12
70
1
10
160
20
0
10
169
20
29.411542731880104
10
198.97114317029974
20
22.5
10
178
20
45
10
198.97114317029974
20
67.5
10
169
20
60.588457268119896
10
160
20
90
10
151
20
60.588457268119896
10
121.02885682970026
20
67.50000000000001
10
142
20
45
10
121.02885682970026
20
22.499999999999996
10
151
20
29.411542731880107
0
LWPOLYLINE
8
CUT
90
6
70
1
10
250
20
0
10
330
20
0
10
330
20
30
10
290
20
30
10
290
20
70
10
250
20
70
0
LWPOLYLINE
8
CUT
90
8
70
1
10
390
20
0
10
450
20
0
10
450
20
25
10
420
20
25
10
420
20
50
10
450
20
50
10
450
20
75
10
390
20
75
0
ENDSEC
0
EOF
