0
SECTION
2
HEADER
9
$ACADVER
1
AC1015
9
$INSUNITS
70
4
0
ENDSEC
0
SECTION
2
ENTITIES
0
LINE
8
CUT
10
40
20
720
30
0
11
120
21
720
31
0
0
ARC
8
CUT
10
120
20
740
30
0
40
20
50
270
51
360
0
LINE
8
CUT
10
140
20
740
30
0
11
140
21
770
31
0
0
ARC
8
CUT
10
120
20
770
30
0
40
20
50
0
51
90
0
LINE
8
CUT
10
120
20
790
30
0
11
40
21
790
31
0
0
ARC
8
CUT
10
40
20
770
30
0
40
20
50
90
51
180
0
LINE
8
CUT
10
20
20
770
30
0
11
20
21
740
31
0
0
ARC
8
CUT
10
40
20
740
30
0
40
20
50
180
51
270
0
LWPOLYLINE
8
CUT
90
4
70
1
10
80
20
666
10
121
20
625
10
80
20
584
10
39
20
625
0
LWPOLYLINE
8
CUT
90
8
70
1
10
330.83980388508803
20
656.2664445218705
10
288.5891924778615
20
705.7355545560113
10
223.73355547812946
20
710.839803885088
10
174.26444544398873
20
668.5891924778615
10
169.16019611491194
20
603.7335554781295
10
211.4108075221385
20
554.2644454439887
10
276.26644452187054
20
549.160196114912
10
325.73555455601127
20
591.4108075221385
0
LWPOLYLINE
8
CUT
90
4
70
1
10
35
20
505
10
160
20
505
10
145
20
580
10
50
20
580
0
LWPOLYLINE
8
CUT
90
3
70
1
10
45
20
395
10
165
20
395
10
80
20
480
0
LINE
8
CUT
10
53
20
295
30
0
11
147
21
295
31
0
0
ARC
8
CUT
10
147
20
313
30
0
40
18
50
270
51
360
0
LINE
8
CUT
10
165
20
313
30
0
11
165
21
352
31
0
0
ARC
8
CUT
10
147
20
352
30
0
40
18
50
0
51
90
0
LINE
8
CUT
10
147
20
370
30
0
11
53
21
370
31
0
0
ARC
8
CUT
10
53
20
352
30
0
40
18
50
90
51
180
0
LINE
8
CUT
10
35
20
352
30
0
11
35
21
313
31
0
0
ARC
8
CUT
10
53
20
313
30
0
40
18
50
180
51
270
0
LWPOLYLINE
8
CUT
90
4
70
1
10
35
20
205
10
165
20
205
10
165
20
277
10
35
20
277
0
LWPOLYLINE
8
CUT
90
3
70
1
10
35
20
95
10
185
20
95
10
150
20
180
0
LWPOLYLINE
8
CUT
90
10
70
1
10
285
20
120
10
304.9846985779441
20
167.4934221912518
10
356.3292387221365
20
171.82372542187895
10
317.3359215540352
20
205.5065778087482
10
329.0838939219355
20
255.67627457812105
10
285
20
229
10
240.91610607806453
20
255.67627457812105
10
252.66407844596478
20
205.5065778087482
10
213.67076127786348
20
171.82372542187895
10
265.0153014220559
20
167.4934221912518
0
ARC
8
CUT
10
80
20
25
30
0
40
55
50
0
51
180
0
LINE
8
CUT
10
59
20
-95
30
0
11
146
21
-95
31
0
0
ARC
8
CUT
10
146
20
-71
30
0
40
24
50
270
51
360
0
LINE
8
CUT
10
170
20
-71
30
0
11
170
21
-44
31
0
0
ARC
8
CUT
10
146
20
-44
30
0
40
24
50
0
51
90
0
LINE
8
CUT
10
146
20
-20
30
0
11
59
21
-20
31
0
0
ARC
8
CUT
10
59
20
-44
30
0
40
24
50
90
51
180
0
LINE
8
CUT
10
35
20
-44
30
0
11
35
21
-71
31
0
0
ARC
8
CUT
10
59
20
-71
30
0
40
24
50
180
51
270
0
CIRCLE
8
CUT
10
80
20
-185
30
0
40
45
0
LWPOLYLINE
8
CUT
90
4
70
1
10
205
20
-220
10
325
20
-220
10
325
20
-135
10
205
20
-135
0
ENDSEC
0
EOF
