<svg xmlns="http://www.w3.org/2000/svg" viewBox="-20 -729.9492019511365 746.4521043958035 749.9492019511365" width="1000" height="1000"><rect x="-20" y="-729.9492019511365" width="746.4521043958035" height="749.9492019511365" fill="#1b2328"/><g fill="#22313b" stroke="#39a9ff" stroke-width="1"><polygon points="111.154,-75.252 84.27799999999999,-150.50400000000002 26.876000000000005,-150.50400000000002 0,-75.252 26.876000000000005,0 84.27799999999999,0"/><polygon points="106.78333933751017,-150.50400000000002 168.61175421104616,-201.12445035581882 149.30519032354343,-255.18225455519206 69.39785098603325,-255.18225455519206 7.569436112497279,-204.56180419937328 26.876000000000005,-150.50400000000002"/><polygon points="139.99342122241563,-255.18225455519206 158.5563574039926,-323.2935747400094 99.72154322099945,-365.1842060798766 44.4518197109377,-322.96171956947165 69.39785098603325,-255.18225455519206"/><polygon points="238.38710439580353,0 238.38710439580353,-164.50400000000002 123.88310439580354,-164.50400000000002 123.88310439580354,0"/><polygon points="238.38710439580353,-164.50400000000002 238.38710439580353,0 352.8911043958035,0 352.8911043958035,-164.50400000000002"/><polygon points="467.3951043958035,0 467.3951043958035,-164.50400000000002 352.8911043958035,-164.50400000000002 352.8911043958035,0"/><polygon points="308.982674632186,-164.50400000000002 327.5456108137629,-232.6153201848173 268.7107966307698,-274.5059515246845 213.441073120708,-232.2834650142796 238.38710439580356,-164.50400000000002"/><polygon points="437.04810439580353,-204.75600000000003 408.29710439580356,-245.008 352.89110439580355,-245.008 324.1401043958035,-204.75600000000003 352.89110439580355,-164.50400000000002 408.29710439580356,-164.50400000000002"/><polygon points="437.04810439580353,-285.26 408.29710439580356,-325.512 352.89110439580355,-325.512 324.1401043958035,-285.26 352.89110439580355,-245.008 408.29710439580356,-245.008"/><polygon points="437.04810439580353,-365.764 408.29710439580356,-406.01599999999996 352.89110439580355,-406.01599999999996 324.1401043958035,-365.764 352.89110439580355,-325.512 408.29710439580356,-325.512"/><polygon points="408.29710439580356,-406.01599999999996 426.86004057738046,-474.1273201848173 368.02522639438735,-516.0179515246846 312.75550288432555,-473.79546501427956 337.70153415942116,-406.01599999999996"/><polygon points="408.29710439580356,-325.512 437.04810439580353,-285.26 492.45410439580354,-285.26 521.2051043958036,-325.512 492.45410439580354,-365.764 437.04810439580353,-365.764"/><polygon points="537.8991043958035,-73.432 537.8991043958035,-141.002 467.3951043958035,-164.50400000000002 467.3951043958035,-49.93000000000001"/><polygon points="608.4031043958036,-96.934 608.4031043958036,-164.50400000000002 537.8991043958035,-188.00600000000003 537.8991043958035,-73.432"/><polygon points="498.33596499641516,-285.26 526.9601203969789,-243.62426530485652 505.0127696195466,-186.4008815281841 437.04810439580353,-285.26"/><polygon points="522.2951043958035,-416.26800000000003 471.7691043958035,-416.26800000000003 437.04810439580353,-365.764 557.0161043958035,-365.764"/><polygon points="658.9071043958036,-131.655 658.9071043958036,-182.18099999999998 608.4031043958036,-216.902 608.4031043958036,-96.934"/><polygon points="605.4691043958036,-73.432 537.8991043958035,-73.432 514.3971043958036,-2.9280000000000115 628.9711043958035,-2.9280000000000115"/><polygon points="518.8003911069387,-219.14577182068484 540.1684467768741,-283.2481204273197 614.4863989822464,-283.2481204273197 578.2539939159865,-174.55398857506898"/><polygon points="614.4863989822464,-283.2481204273197 635.854454652182,-347.35046903395454 576.4008518431342,-391.9422522795704 540.1684467768741,-283.2481204273197"/><polygon points="149.30519032354346,-255.18225455519206 177.92934572410726,-296.81798925033553 239.21720632471886,-296.81798925033553 171.25254110097586,-197.95887077851964"/><polygon points="50.504000000000005,-239.71339209405687 50.504000000000005,-290.2393920940569 0,-324.96039209405683 0,-204.99239209405687"/><polygon points="273.39610439580355,-317.17799058194663 291.36510439580354,-258.37599058194667 324.1401043958035,-283.6969905819467 324.1401043958035,-350.6589905819467 291.36510439580354,-375.97999058194665"/><polygon points="217.57825078852858,-324.910747921292 167.40880270306388,-289.36378400311935 156.95296622718172,-329.43907750908903 197.89151395787184,-382.42912142020504 239.30834225266042,-382.42912142020504"/><polygon points="55.2081409184381,-358.16085138779425 37.239140918438096,-416.9628513877942 4.464140918438098,-391.6418513877942 4.464140918438098,-324.6798513877942 37.239140918438096,-299.35885138779423"/><polygon points="239.30834225266042,-422.93312142020505 239.30834225266042,-382.42912142020504 138.80434225266043,-382.42912142020504 138.80434225266043,-422.93312142020505"/><polygon points="265.95110439580355,-327.44399058194665 291.36510439580354,-375.97999058194665 282.9551043958035,-444.01799058194666 248.94710439580354,-444.01799058194666 240.53710439580354,-375.97999058194665"/><polygon points="239.30834225266042,-463.4371214202051 239.30834225266042,-422.93312142020505 138.80434225266043,-422.93312142020505 138.80434225266043,-463.4371214202051"/><polygon points="138.80434225266043,-408.9530937347199 120.83534225266044,-467.75509373471994 88.06034225266043,-442.4340937347199 88.06034225266043,-375.4720937347199 120.83534225266044,-350.1510937347199"/><polygon points="239.30834225266042,-503.9411214202051 239.30834225266042,-463.4371214202051 138.80434225266043,-463.4371214202051 138.80434225266043,-503.9411214202051"/><polygon points="557.0161043958035,-365.764 582.4301043958035,-414.3 574.0201043958035,-482.338 540.0121043958035,-482.338 531.6021043958035,-414.3"/><polygon points="138.80434225266043,-503.9411214202051 138.80434225266043,-544.445121420205 239.30834225266042,-544.445121420205 239.30834225266042,-503.9411214202051"/><polygon points="239.30834225266042,-584.9491214202051 239.30834225266042,-544.445121420205 138.80434225266043,-544.445121420205 138.80434225266043,-584.9491214202051"/><polygon points="94.66034225266043,-620.1201214202051 50.51634225266042,-544.4451214202052 138.80434225266043,-544.4451214202052"/><polygon points="138.80434225266043,-544.4451214202052 95.68094445091033,-468.18391946906877 51.194991376170094,-544.4451214202052"/><polygon points="529.8761043958035,-558.013 485.7321043958035,-482.338 574.0201043958035,-482.338"/><polygon points="574.0201043958035,-482.338 618.1641043958035,-558.013 529.8761043958035,-558.013"/><polygon points="485.7321043958035,-482.338 529.8761043958035,-558.013 441.5881043958035,-558.013"/><polygon points="485.7321043958035,-633.688 441.5881043958035,-558.013 529.8761043958035,-558.013"/><polygon points="574.0201043958035,-633.688 529.8761043958035,-558.013 618.1641043958035,-558.013"/><polygon points="529.8761043958035,-558.013 574.0201043958035,-633.688 485.7321043958035,-633.688"/><polygon points="441.5881043958035,-558.013 485.7321043958035,-633.688 397.4441043958035,-633.688"/><polygon points="397.4441043958035,-633.688 353.3001043958035,-558.013 441.5881043958035,-558.013"/><polygon points="353.3001043958035,-558.013 397.4441043958035,-633.688 309.1561043958035,-633.688"/><polygon points="309.1561043958035,-633.688 265.0121043958035,-558.013 353.3001043958035,-558.013"/><polygon points="618.1641043958035,-558.013 662.3081043958035,-633.688 574.0201043958035,-633.688"/><polygon points="662.3081043958035,-633.688 618.1641043958035,-558.013 706.4521043958035,-558.013"/><polygon points="396.7654552722938,-633.688 353.6420574705437,-709.9492019511364 309.1561043958035,-633.688"/><polygon points="353.6420574705437,-709.9492019511364 441.25140834703404,-709.9492019511365 396.7654552722938,-633.688"/><polygon points="265.0121043958035,-558.013 309.1561043958035,-633.688 220.86810439580347,-633.688"/><polygon points="352.6214552722938,-558.013 309.4980574705437,-481.75179804886363 265.0121043958035,-558.013"/><polygon points="485.05345527229383,-633.688 441.9300574705437,-709.9492019511364 397.4441043958035,-633.688"/><polygon points="441.9300574705437,-709.9492019511364 529.539408347034,-709.9492019511365 485.05345527229383,-633.688"/><polygon points="47.55634225266043,-383.20070141534495 88.06034225266043,-383.20070141534495 88.06034225266043,-423.70470141534497 47.55634225266043,-423.70470141534497"/><polygon points="47.55634225266043,-423.70470141534497 88.06034225266043,-423.70470141534497 88.06034225266043,-464.208701415345 47.55634225266043,-464.208701415345"/><polygon points="467.3951043958035,-9.426000000000002 507.89910439580353,-9.426000000000002 507.89910439580353,-49.93000000000001 467.3951043958035,-49.93000000000001"/><polygon points="182.97572720488594,-164.50400000000002 223.47972720488593,-164.50400000000002 223.47972720488593,-205.00800000000004 182.97572720488594,-205.00800000000004"/><polygon points="535.0055104336059,-482.338 494.50151043360586,-482.338 494.50151043360586,-441.834 535.0055104336059,-441.834"/><polygon points="453.99751043360584,-441.834 494.50151043360586,-441.834 494.50151043360586,-482.338 453.99751043360584,-482.338"/><polygon points="352.6214552722938,-517.509 393.12545527229383,-517.509 393.12545527229383,-558.013 352.6214552722938,-558.013"/><polygon points="393.12545527229383,-517.509 433.62945527229385,-517.509 433.62945527229385,-558.013 393.12545527229383,-558.013"/></g></svg>