<svg xmlns="http://www.w3.org/2000/svg" viewBox="-24 -424 648 448" width="1000" height="691"><rect x="-24" y="-424" width="648" height="448" fill="#1b2328"/><rect x="0" y="-400" width="600" height="400" fill="#141b20" stroke="#9aa7b0" stroke-width="1.5" stroke-dasharray="6 4"/><g fill="#22313b" stroke="#39a9ff" stroke-width="1"><polygon points="228.78600000000003,-350.436 152.52500000000003,-307.313 228.78600000000003,-262.827"/><polygon points="152.524,-307.313 152.524,-394.922 228.786,-350.436"/><polygon points="228.78600000000003,-262.827 152.52500000000003,-219.704 228.78600000000003,-175.21800000000002"/><polygon points="152.524,-219.704 152.524,-307.313 228.786,-262.827"/><polygon points="228.78600000000003,-175.218 152.52500000000003,-132.095 228.78600000000003,-87.609"/><polygon points="152.524,-132.095 152.524,-219.704 228.786,-175.21800000000002"/><polygon points="228.78600000000003,-87.609 152.52500000000003,-44.486000000000004 228.78600000000003,0"/><polygon points="152.524,-44.486 152.524,-132.095 228.786,-87.609"/><polygon points="152.524,-350.436 76.263,-307.313 152.524,-262.827"/><polygon points="76.262,-307.313 76.262,-394.922 152.524,-350.436"/><polygon points="152.524,-262.827 76.263,-219.704 152.524,-175.21800000000002"/><polygon points="76.262,-219.704 76.262,-307.313 152.524,-262.827"/><polygon points="152.524,-175.218 76.263,-132.095 152.524,-87.609"/><polygon points="76.262,-132.095 76.262,-219.704 152.524,-175.21800000000002"/><polygon points="152.524,-87.609 76.263,-44.486000000000004 152.524,0"/><polygon points="76.262,-44.486 76.262,-132.095 152.524,-87.609"/><polygon points="76.262,-350.436 0.0010000000000047748,-307.313 76.262,-262.827"/><polygon points="0,-307.313 0,-394.922 76.262,-350.436"/><polygon points="76.262,-262.827 0.0010000000000047748,-219.704 76.262,-175.21800000000002"/><polygon points="0,-219.704 0,-307.313 76.262,-262.827"/></g></svg>