<svg xmlns="http://www.w3.org/2000/svg" viewBox="-108 -2808 2216 2916" width="1000" height="1316"><rect x="-108" y="-2808" width="2216" height="2916" fill="#1b2328"/><rect x="0" y="-2700" width="2000" height="2700" fill="#141b20" stroke="#9aa7b0" stroke-width="1.5" stroke-dasharray="6 4"/><g fill="#22313b" stroke="#39a9ff" stroke-width="1"><polygon points="0,-91.854 53.032,0 159.096,0 212.128,-91.854 159.096,-183.709 53.032,-183.709"/><polygon points="409.91499999999996,-129.37800000000001 389.481,-39.845 306.74,0 223.999,-39.846000000000004 203.564,-129.37900000000002 260.823,-201.178 352.658,-201.178"/><polygon points="394.011,-55.265 394.39700000000005,-49.647 395.54900000000004,-44.101 397.44300000000004,-38.69800000000001 400.04900000000004,-33.495000000000005 403.326,-28.546999999999997 407.228,-23.897000000000006 411.709,-19.581000000000003 416.71900000000005,-15.634 422.20500000000004,-12.079999999999998 428.119,-8.948999999999998 434.40000000000003,-6.260000000000005 441.086,-4.001000000000005 454.875,-1.0130000000000052 469.27500000000003,0 483.675,-1.0130000000000052 497.46400000000006,-4.001000000000005 504.15000000000003,-6.260000000000005 510.43100000000004,-8.948999999999998 516.345,-12.079999999999998 521.831,-15.634 526.841,-19.581000000000003 531.322,-23.897000000000006 535.224,-28.546999999999997 538.501,-33.495000000000005 541.107,-38.69800000000001 543.001,-44.101 544.153,-49.647 544.539,-55.265 544.153,-60.883 543.001,-66.429 541.107,-71.832 538.501,-77.035 535.224,-81.983 531.322,-86.63300000000001 526.841,-90.949 521.831,-94.896 516.345,-98.45 510.43100000000004,-101.581 504.15000000000003,-104.27 497.46400000000006,-106.529 483.675,-109.517 469.27500000000003,-110.53 454.875,-109.517 441.086,-106.529 434.40000000000003,-104.27 428.119,-101.581 422.20500000000004,-98.45 416.71900000000005,-94.896 411.709,-90.949 407.228,-86.63300000000001 403.326,-81.983 400.04900000000004,-77.035 397.44300000000004,-71.832 395.54900000000004,-66.429 394.39700000000005,-60.883"/><polygon points="656.51,-91.87700000000001 625.009,0 527.881,0 559.383,-91.87700000000001"/><polygon points="775.492,0 730.9699999999999,-106.852 625.009,0"/><polygon points="817.5949999999999,-110.02199999999999 828.2239999999999,-107.90799999999999 838.2349999999999,-103.762 847.2449999999999,-97.74099999999999 854.9069999999999,-90.07999999999998 860.9269999999999,-81.07 865.0749999999999,-71.059 867.189,-60.43099999999999 867.189,-49.593999999999994 865.0749999999999,-38.96499999999999 860.929,-28.953999999999994 854.9079999999999,-19.94399999999999 847.246,-12.281999999999996 838.237,-6.261999999999986 828.2259999999999,-2.11399999999999 817.598,0 806.761,0 796.132,-2.11399999999999 786.121,-6.259999999999991 777.111,-12.280999999999992 769.449,-19.942999999999998 763.429,-28.951999999999998 759.281,-38.964 757.1669999999999,-49.590999999999994 757.1669999999999,-60.42799999999999 759.281,-71.05699999999999 763.4269999999999,-81.06799999999998 769.448,-90.07799999999999 777.1099999999999,-97.74 786.1189999999999,-103.75999999999999 796.13,-107.90799999999999 806.7579999999999,-110.02199999999999"/><polygon points="867.189,0 977.693,0 977.693,-85.665 976.519,-93.075 972.923,-100.133 967.322,-105.734 960.264,-109.33 952.8539999999999,-110.504 892.028,-110.504 884.6179999999999,-109.33 877.56,-105.734 871.959,-100.133 868.3629999999999,-93.075 867.189,-85.665"/><polygon points="1022.687,0 1048.24,0 1056.9089999999999,-0.977 1065.424,-3.956 1073.062,-8.756 1079.441,-15.135 1084.241,-22.773 1087.22,-31.288 1088.197,-39.957 1088.197,-85.665 1087.023,-93.075 1083.427,-100.133 1077.826,-105.734 1070.768,-109.33 1063.358,-110.504 992.428,-110.504 987.069,-109.438 982.088,-106.109 978.759,-101.128 977.693,-95.769 977.693,-44.994 978.538,-36.418 981.114,-27.926 985.298,-20.097 990.929,-13.236 997.79,-7.605 1005.619,-3.421 1014.111,-0.845"/><polygon points="1193.973,0 1083.3509999999999,-7.258 1085.837,-26.127 1089.4009999999998,-39.426 1094.671,-52.147 1101.556,-64.072 1109.9389999999999,-74.994 1119.676,-84.731 1130.6009999999999,-93.111 1142.5249999999999,-99.996 1155.2469999999998,-105.264 1168.547,-108.827 1182.1979999999999,-110.622 1201.231,-110.622"/><polygon points="1277.363,-83.39 1193.973,0 1360.7530000000002,0"/><polygon points="1448.18,0 1448.18,-110.504 1360.7530000000002,-110.504 1337.6760000000002,-87.427 1337.6760000000002,-23.077 1360.7530000000002,0"/><polygon points="1471.257,0 1535.607,0 1558.684,-23.077 1558.684,-87.427 1535.607,-110.504 1471.257,-110.504 1448.18,-87.427 1448.18,-23.077"/><polygon points="1708.392,0 1657.521,-101.741 1558.684,-52.322 1584.845,0"/><polygon points="1708.392,0 1680.875,-110.067 1794.78,-110.067 1808.896,-53.602"/><polygon points="1833.735,0 1894.561,0 1901.971,-1.174 1909.029,-4.77 1914.6299999999999,-10.371 1918.2259999999999,-17.429 1919.3999999999999,-24.839 1919.3999999999999,-85.665 1918.2259999999999,-93.075 1914.6299999999999,-100.133 1909.029,-105.734 1901.971,-109.33 1894.561,-110.504 1833.735,-110.504 1826.325,-109.33 1819.267,-105.734 1813.666,-100.133 1810.07,-93.075 1808.896,-85.665 1808.896,-24.839 1810.07,-17.429 1813.666,-10.371 1819.267,-4.77 1826.325,-1.174"/><polygon points="1227.172,-83.39 1337.676,-83.39 1337.676,-193.894 1227.172,-193.894"/><polygon points="1995.632,-3.143 1963.2430000000002,-109.929 1948.355,-103.762 1939.345,-97.743 1931.682,-90.08 1925.662,-81.071 1921.515,-71.06 1919.4,-60.432 1919.4,-49.596000000000004 1921.5140000000001,-38.967 1925.661,-28.955000000000002 1931.68,-19.945 1939.343,-12.283000000000001 1948.352,-6.2620000000000005 1958.363,-2.1149999999999998 1968.991,0 1979.827,0"/></g></svg>