<svg xmlns="http://www.w3.org/2000/svg" viewBox="-20 -1319.0559999999996 1331.3770000000002 1339.0559999999996" width="1000" height="1000"><rect x="-20" y="-1319.0559999999996" width="1331.3770000000002" height="1339.0559999999996" fill="#1b2328"/><g fill="#22313b" stroke="#39a9ff" stroke-width="1"><polygon points="0,0 164.50400000000002,0 164.50400000000002,-114.50399999999999 0,-114.50399999999999"/><polygon points="0,-114.5039999999999 164.50400000000002,-114.5039999999999 164.50400000000002,-229.0079999999999 0,-229.0079999999999"/><polygon points="164.50400000000002,-43.90842976361755 232.61532018481734,-25.345493582040618 274.5059515246845,-84.18030776503377 232.2834650142796,-139.4500312750955 164.50400000000002,-114.50399999999995"/><polygon points="164.50400000000002,-158.41242976361747 232.61532018481734,-139.8494935820405 274.5059515246845,-198.68430776503368 232.2834650142796,-253.95403127509542 164.50400000000002,-229.00799999999984"/><polygon points="0,-229.0079999999998 164.50400000000002,-229.0079999999998 164.50400000000002,-343.51199999999983 0,-343.51199999999983"/><polygon points="164.50400000000002,-272.9164297636174 232.61532018481734,-254.35349358204041 274.5059515246845,-313.1883077650336 232.2834650142796,-368.4580312750953 164.50400000000002,-343.5119999999998"/><polygon points="0,-418.76399999999984 26.875999999999998,-343.51199999999983 84.27799999999999,-343.51199999999983 111.154,-418.76399999999984 84.27799999999999,-494.01599999999985 26.875999999999998,-494.01599999999985"/><polygon points="111.154,-569.2679999999998 84.27799999999999,-644.5199999999999 26.876000000000005,-644.5199999999999 0,-569.2679999999998 26.876000000000005,-494.01599999999985 84.27799999999999,-494.01599999999985"/><polygon points="0.12099999999999511,-684.7719999999999 28.871999999999996,-644.5199999999999 84.27799999999999,-644.5199999999999 113.02899999999998,-684.7719999999999 84.27799999999999,-725.0239999999999 28.871999999999996,-725.0239999999999"/><polygon points="91.07200000000002,-795.5279999999998 23.50200000000001,-795.5279999999998 0,-725.0239999999998 114.57400000000001,-725.0239999999998"/><polygon points="0,-835.7799999999997 28.751,-795.5279999999997 84.157,-795.5279999999997 112.90799999999999,-835.7799999999997 84.157,-876.0319999999997 28.751,-876.0319999999997"/><polygon points="23.502,-876.0319999999997 91.072,-876.0319999999997 114.57400000000001,-946.5359999999997 0,-946.5359999999997"/><polygon points="143.32500000000002,-986.7879999999996 114.57400000000001,-1027.0399999999995 59.16800000000002,-1027.0399999999995 30.41700000000003,-986.7879999999996 59.16800000000002,-946.5359999999996 114.57400000000001,-946.5359999999996"/><polygon points="91.07200000000002,-1097.5439999999996 23.50200000000001,-1097.5439999999996 0,-1027.0399999999997 114.57400000000001,-1027.0399999999997"/><polygon points="0,-1137.7959999999998 28.751,-1097.5439999999999 84.157,-1097.5439999999999 112.90799999999999,-1137.7959999999998 84.157,-1178.0479999999998 28.751,-1178.0479999999998"/><polygon points="23.502,-1178.0479999999998 91.072,-1178.0479999999998 114.57400000000001,-1248.5519999999997 0,-1248.5519999999997"/><polygon points="85.24699999999999,-1299.0559999999996 34.72099999999999,-1299.0559999999996 0,-1248.5519999999997 119.96799999999999,-1248.5519999999997"/><polygon points="114.57400000000001,-1027.0399999999995 182.144,-1027.0399999999995 205.64600000000002,-1097.5439999999994 91.07200000000002,-1097.5439999999994"/><polygon points="170.925,-1148.0479999999998 120.39900000000002,-1148.0479999999998 85.67800000000003,-1097.5439999999999 205.64600000000002,-1097.5439999999999"/><polygon points="205.64600000000002,-1097.5439999999996 256.172,-1097.5439999999996 290.89300000000003,-1148.0479999999995 170.925,-1148.0479999999995"/><polygon points="257.41200000000003,-1198.7919999999997 198.61000000000004,-1180.8229999999996 223.93100000000007,-1148.0479999999998 290.89300000000003,-1148.0479999999998 316.21400000000006,-1180.8229999999996"/><polygon points="349.69500000000005,-1130.0789999999997 408.49700000000007,-1148.0479999999998 383.17600000000004,-1180.8229999999996 316.21400000000006,-1180.8229999999996 290.89300000000003,-1148.0479999999998"/><polygon points="401.461,-1231.3269999999998 350.935,-1231.3269999999998 316.21400000000006,-1180.8229999999999 436.182,-1180.8229999999999"/><polygon points="367.98,-1282.0709999999997 309.178,-1264.1019999999996 334.499,-1231.3269999999998 401.461,-1231.3269999999998 426.78200000000004,-1264.1019999999996"/><polygon points="436.182,-1180.8229999999996 486.708,-1180.8229999999996 521.429,-1231.3269999999995 401.461,-1231.3269999999995"/><polygon points="485.58400000000006,-1282.0709999999997 426.78200000000004,-1264.1019999999996 452.10300000000007,-1231.3269999999998 519.065,-1231.3269999999998 544.3860000000001,-1264.1019999999996"/><polygon points="408.49700000000007,-1180.8229999999996 408.49700000000007,-1140.3189999999997 509.0010000000001,-1140.3189999999997 509.0010000000001,-1180.8229999999996"/><polygon points="408.49700000000007,-1140.3189999999995 408.49700000000007,-1099.8149999999996 509.0010000000001,-1099.8149999999996 509.0010000000001,-1140.3189999999995"/><polygon points="408.49700000000007,-1099.8149999999996 408.49700000000007,-1059.3109999999997 509.0010000000001,-1059.3109999999997 509.0010000000001,-1099.8149999999996"/><polygon points="377.32085544954066,-1019.9546962006998 358.052901522388,-1071.2417378726575 374.7458608438926,-1137.7341634043719 408.49700000000007,-1133.5622729857403 408.49700000000007,-1065.0064742229806"/><polygon points="540.1771445504595,-1067.2154232149592 559.4450984776121,-1118.5024648869169 542.7521391561075,-1184.9948904186313 509.0010000000001,-1180.8229999999994 509.00100000000015,-1112.2672012372398"/><polygon points="452.6410000000001,-983.6359999999996 496.7850000000001,-1059.3109999999997 408.49700000000007,-1059.3109999999997"/><polygon points="408.49700000000007,-1059.3109999999997 364.35300000000007,-983.6359999999997 452.6410000000001,-983.6359999999997"/><polygon points="352.13700000000006,-983.6359999999996 352.13700000000006,-943.1319999999996 452.6410000000001,-943.1319999999996 452.6410000000001,-983.6359999999996"/><polygon points="352.13700000000006,-943.1319999999996 352.13700000000006,-902.6279999999996 452.6410000000001,-902.6279999999996 452.6410000000001,-943.1319999999996"/><polygon points="496.7850000000001,-1059.3109999999997 452.6410000000001,-983.6359999999997 540.9290000000001,-983.6359999999997"/><polygon points="540.9290000000001,-983.6359999999996 585.0730000000001,-1059.3109999999997 496.7850000000001,-1059.3109999999997"/><polygon points="585.0730000000001,-1059.3109999999997 540.9290000000001,-983.6359999999997 629.2170000000001,-983.6359999999997"/><polygon points="629.2170000000001,-983.6359999999996 673.3610000000001,-1059.3109999999997 585.0730000000001,-1059.3109999999997"/><polygon points="673.3610000000001,-1059.3109999999997 629.2170000000001,-983.6359999999997 717.5050000000001,-983.6359999999997"/><polygon points="717.5050000000001,-983.6359999999996 761.6490000000001,-1059.3109999999997 673.3610000000001,-1059.3109999999997"/><polygon points="761.6490000000001,-1059.3109999999997 717.5050000000001,-983.6359999999997 805.7930000000001,-983.6359999999997"/><polygon points="805.7930000000001,-983.6359999999996 849.9370000000001,-1059.3109999999997 761.6490000000001,-1059.3109999999997"/><polygon points="849.9370000000001,-1059.3109999999997 805.7930000000001,-983.6359999999997 894.0810000000001,-983.6359999999997"/><polygon points="894.0810000000001,-983.6359999999996 938.2250000000001,-1059.3109999999997 849.9370000000001,-1059.3109999999997"/><polygon points="938.2250000000001,-1059.3109999999997 894.0810000000001,-983.6359999999997 982.3690000000001,-983.6359999999997"/><polygon points="982.3690000000001,-983.6359999999996 1026.5130000000001,-1059.3109999999997 938.2250000000001,-1059.3109999999997"/><polygon points="1026.5130000000001,-1059.3109999999997 982.3690000000001,-983.6359999999997 1070.6570000000002,-983.6359999999997"/><polygon points="1070.6570000000002,-983.6359999999996 1114.8010000000002,-1059.3109999999997 1026.5130000000001,-1059.3109999999997"/><polygon points="1114.8010000000002,-1059.3109999999997 1070.6570000000002,-983.6359999999997 1158.9450000000002,-983.6359999999997"/><polygon points="1158.9450000000002,-983.6359999999996 1203.0890000000002,-1059.3109999999997 1114.8010000000002,-1059.3109999999997"/><polygon points="1203.0890000000002,-1059.3109999999997 1158.9450000000002,-983.6359999999997 1247.2330000000002,-983.6359999999997"/><polygon points="1247.2330000000002,-983.6359999999996 1291.3770000000002,-1059.3109999999997 1203.0890000000002,-1059.3109999999997"/><polygon points="452.6410000000001,-983.6359999999996 452.6410000000001,-943.1319999999996 493.1450000000001,-943.1319999999996 493.1450000000001,-983.6359999999996"/><polygon points="493.1450000000001,-983.6359999999996 493.1450000000001,-943.1319999999996 533.6490000000001,-943.1319999999996 533.6490000000001,-983.6359999999996"/><polygon points="533.6490000000001,-983.6359999999996 533.6490000000001,-943.1319999999996 574.1530000000001,-943.1319999999996 574.1530000000001,-983.6359999999996"/><polygon points="574.1530000000001,-983.6359999999996 574.1530000000001,-943.1319999999996 614.6570000000002,-943.1319999999996 614.6570000000002,-983.6359999999996"/><polygon points="452.6410000000001,-943.1319999999996 452.6410000000001,-902.6279999999996 493.1450000000001,-902.6279999999996 493.1450000000001,-943.1319999999996"/><polygon points="493.1450000000001,-943.1319999999996 493.1450000000001,-902.6279999999996 533.6490000000001,-902.6279999999996 533.6490000000001,-943.1319999999996"/><polygon points="533.6490000000001,-943.1319999999996 533.6490000000001,-902.6279999999996 574.1530000000001,-902.6279999999996 574.1530000000001,-943.1319999999996"/><polygon points="574.1530000000001,-943.1319999999996 574.1530000000001,-902.6279999999996 614.6570000000002,-902.6279999999996 614.6570000000002,-943.1319999999996"/></g></svg>