<svg xmlns="http://www.w3.org/2000/svg" viewBox="-20 -320 340 340" width="1000" height="1000"><rect x="-20" y="-320" width="340" height="340" fill="#1b2328"/><rect x="0" y="-300" width="300" height="300" fill="#141b20" stroke="#9aa7b0" stroke-width="1.5" stroke-dasharray="6 4"/><g fill="#22313b" stroke="#39a9ff" stroke-width="1"><polygon points="299.57499999999993,-221.25500000000005 279.14099999999996,-131.72200000000004 196.39999999999998,-91.87700000000004 113.65899999999996,-131.72300000000004 93.22399999999996,-221.25600000000006 150.48299999999995,-293.05500000000006 242.31799999999996,-293.05500000000006"/><polygon points="88.07799999999999,-13.920000000000007 93.49999999999999,-15.440000000000007 98.69599999999998,-17.696000000000005 103.60099999999998,-20.649000000000008 108.16499999999999,-24.259000000000007 112.34299999999999,-28.474000000000007 116.10199999999999,-33.24000000000001 119.41699999999999,-38.50500000000001 122.26199999999999,-44.21300000000001 124.62599999999999,-50.30700000000001 126.48899999999999,-56.73400000000001 127.84499999999998,-63.431000000000004 128.697,-70.43700000000001 128.81799999999998,-84.545 126.88099999999999,-98.85000000000001 122.96099999999998,-112.74300000000001 117.231,-125.63600000000001 113.65899999999999,-131.723 109.749,-137.326 105.481,-142.48000000000002 100.88499999999999,-147.12800000000001 96.00199999999998,-151.231 90.86499999999998,-154.74 85.51799999999999,-157.615 80.00699999999999,-159.817 74.38299999999998,-161.311 68.708,-162.066 63.04299999999999,-162.066 57.463999999999984,-161.30200000000002 52.04199999999999,-159.781 46.84599999999999,-157.525 41.94099999999999,-154.572 37.37699999999999,-150.96200000000002 33.19899999999999,-146.74800000000002 29.43999999999999,-141.981 26.12499999999999,-136.716 23.279999999999987,-131.008 20.91599999999999,-124.914 19.05299999999999,-118.48700000000001 17.69799999999999,-111.79 16.84599999999999,-104.78500000000001 16.72399999999999,-90.676 18.660999999999987,-76.37100000000001 22.58199999999999,-62.47800000000001 28.31099999999999,-49.58500000000001 31.88299999999999,-43.498000000000005 35.79299999999999,-37.89500000000001 40.06199999999999,-32.742000000000004 44.65699999999999,-28.093000000000007 49.53999999999999,-23.990000000000006 54.67799999999999,-20.481000000000005 60.02399999999999,-17.60600000000001 65.535,-15.404000000000007 71.15899999999999,-13.911000000000007 76.83499999999998,-13.155000000000006 82.499,-13.155000000000006"/><polygon points="256.455,-7.105427357601002e-15 224.954,-91.87700000000001 127.826,-91.87700000000001 159.328,-7.105427357601002e-15"/><polygon points="44.52199999999999,-186.203 -7.105427357601002e-15,-293.055 150.483,-293.055"/><polygon points="294.245,-19.414000000000016 294.245,-131.00400000000002 278.208,-129.42400000000004 267.839,-126.27900000000001 258.282,-121.17000000000002 249.906,-114.29600000000002 243.032,-105.92000000000002 237.923,-96.36300000000001 234.77800000000002,-85.99400000000001 233.716,-75.20900000000002 234.77800000000002,-64.424 237.923,-54.055000000000014 243.032,-44.49800000000002 249.906,-36.122000000000014 258.282,-29.248000000000015 267.839,-24.139000000000017 278.208,-20.994000000000014"/></g></svg>